<svg xmlns="http://www.w3.org/2000/svg" width="20" height="20" viewBox="0 0 20 20" fill="none">
  <path d="M 10 20 C 15.523 20 20 15.523 20 10 C 20 4.477 15.523 0 10 0 C 4.477 0 0 4.477 0 10 C 0 15.523 4.477 20 10 20 Z M 10.997 16.803 C 14.321 16.32 16.875 13.458 16.875 10 C 16.875 6.542 14.321 3.68 10.997 3.197 C 10.7 3.154 10.552 3.132 10.399 3.192 C 10.276 3.239 10.146 3.352 10.081 3.467 C 10 3.61 10 3.782 10 4.125 L 10 15.875 C 10 16.218 10 16.39 10.081 16.533 C 10.146 16.648 10.276 16.761 10.399 16.808 C 10.552 16.868 10.7 16.846 10.997 16.803 Z" fill="currentColor" fill-rule="evenodd"></path>
</svg>